
<svg baseProfile="full" height="360px" version="1.1" width="360px" xmlns="http://www.w3.org/2000/svg" xmlns:ev="http://www.w3.org/2001/xml-events" xmlns:xlink="http://www.w3.org/1999/xlink"><defs /><rect fill="white" height="360" width="360" x="0" y="0" /><path d="M 218,255 L 216,257 L 215,262 L 213,264 L 211,272 L 209,274 L 208,279 L 206,281 L 205,287 L 203,290 L 204,291 L 207,290 L 207,288 L 209,286 L 209,283 L 211,280 L 226,280 L 229,284 L 230,290 L 234,291 L 233,284 L 230,280 L 230,277 L 229,274 L 227,272 L 223,259 L 221,255 Z" fill="black" stroke="none" /><path d="M 166,256 L 167,258 L 166,290 L 167,291 L 170,290 L 169,288 L 170,274 L 190,274 L 191,291 L 194,291 L 195,256 L 194,255 L 191,256 L 190,271 L 170,271 L 169,270 L 170,256 L 169,255 Z" fill="black" stroke="none" /><path d="M 128,255 L 127,256 L 127,290 L 128,291 L 142,291 L 143,290 L 149,289 L 154,284 L 154,282 L 155,281 L 155,275 L 156,274 L 155,270 L 156,268 L 153,261 L 150,258 L 146,256 L 142,256 L 141,255 Z" fill="black" stroke="none" /><path d="M 227,202 L 223,206 L 223,208 L 224,209 L 224,210 L 226,212 L 227,212 L 228,213 L 230,213 L 231,212 L 232,212 L 234,210 L 234,205 L 233,204 L 233,203 L 232,202 Z" fill="black" stroke="none" /><path d="M 199,91 L 198,177 L 189,177 L 189,153 L 159,153 L 159,192 L 191,192 L 202,186 L 210,175 L 212,169 L 212,110 L 205,96 Z" fill="black" stroke="none" /><path d="M 159,87 L 159,144 L 189,144 L 189,87 Z" fill="black" stroke="none" /><path d="M 142,87 L 142,192 L 150,192 L 150,87 Z" fill="black" stroke="none" /><path d="M 127,73 L 126,214 L 207,212 L 223,197 L 228,179 L 228,112 L 222,89 L 199,73 L 159,73 L 160,78 L 195,79 L 215,94 L 221,111 L 220,174 L 212,189 L 194,201 L 134,202 L 133,79 L 149,78 L 150,73 Z" fill="black" stroke="none" /></svg>
