<svg width="80" height="80" viewBox="0 0 80 80" fill="none" xmlns="http://www.w3.org/2000/svg">
  <rect width="80" height="80" rx="16" fill="#2A51F5"/>
  <path d="M29.6 22.4H42.24C47.2533 22.4 51.1733 23.3867 54 25.36C56.8267 27.3333 58.24 30.2133 58.24 34C58.24 36.56 57.5733 38.72 56.24 40.48C54.9067 42.24 53.1467 43.52 50.96 44.32C48.7733 45.12 46.2667 45.52 43.44 45.52H37.52V57.6H29.6V22.4ZM42.4 39.2C44.8533 39.2 46.6667 38.72 47.84 37.76C49.0133 36.8 49.6 35.52 49.6 33.92C49.6 32.2667 48.9867 30.96 47.76 30C46.5333 29.04 44.72 28.56 42.32 28.56H37.52V39.2H42.4Z" fill="white"/>
</svg>